G04 #@! TF.FileFunction,Legend,Top*
%FSLAX46Y46*%
G04 Gerber Fmt 4.6, Leading zero omitted, Abs format (unit mm)*
G04 Created by KiCad (PCBNEW 4.0.5+dfsg1-4) date Wed Mar 13 23:51:39 2019*
%MOMM*%
%LPD*%
G01*
G04 APERTURE LIST*
%ADD10C,0.100000*%
%ADD11C,0.300000*%
%ADD12C,0.150000*%
G04 APERTURE END LIST*
D10*
D11*
X109115715Y-100778571D02*
X109472858Y-102278571D01*
X109758572Y-101207143D01*
X110044286Y-102278571D01*
X110401429Y-100778571D01*
X111615715Y-102278571D02*
X111615715Y-101492857D01*
X111544286Y-101350000D01*
X111401429Y-101278571D01*
X111115715Y-101278571D01*
X110972858Y-101350000D01*
X111615715Y-102207143D02*
X111472858Y-102278571D01*
X111115715Y-102278571D01*
X110972858Y-102207143D01*
X110901429Y-102064286D01*
X110901429Y-101921429D01*
X110972858Y-101778571D01*
X111115715Y-101707143D01*
X111472858Y-101707143D01*
X111615715Y-101635714D01*
X112330001Y-102278571D02*
X112330001Y-100778571D01*
X112472858Y-101707143D02*
X112901429Y-102278571D01*
X112901429Y-101278571D02*
X112330001Y-101850000D01*
X114115715Y-102207143D02*
X113972858Y-102278571D01*
X113687144Y-102278571D01*
X113544287Y-102207143D01*
X113472858Y-102064286D01*
X113472858Y-101492857D01*
X113544287Y-101350000D01*
X113687144Y-101278571D01*
X113972858Y-101278571D01*
X114115715Y-101350000D01*
X114187144Y-101492857D01*
X114187144Y-101635714D01*
X113472858Y-101778571D01*
X115972858Y-100778571D02*
X115972858Y-101992857D01*
X116044286Y-102135714D01*
X116115715Y-102207143D01*
X116258572Y-102278571D01*
X116544286Y-102278571D01*
X116687144Y-102207143D01*
X116758572Y-102135714D01*
X116830001Y-101992857D01*
X116830001Y-100778571D01*
X117544287Y-101278571D02*
X117544287Y-102778571D01*
X117544287Y-101350000D02*
X117687144Y-101278571D01*
X117972858Y-101278571D01*
X118115715Y-101350000D01*
X118187144Y-101421429D01*
X118258573Y-101564286D01*
X118258573Y-101992857D01*
X118187144Y-102135714D01*
X118115715Y-102207143D01*
X117972858Y-102278571D01*
X117687144Y-102278571D01*
X117544287Y-102207143D01*
X120758573Y-102278571D02*
X120044287Y-102278571D01*
X120044287Y-100778571D01*
X121258573Y-102278571D02*
X121258573Y-101278571D01*
X121258573Y-100778571D02*
X121187144Y-100850000D01*
X121258573Y-100921429D01*
X121330001Y-100850000D01*
X121258573Y-100778571D01*
X121258573Y-100921429D01*
X122615716Y-101278571D02*
X122615716Y-102492857D01*
X122544287Y-102635714D01*
X122472859Y-102707143D01*
X122330002Y-102778571D01*
X122115716Y-102778571D01*
X121972859Y-102707143D01*
X122615716Y-102207143D02*
X122472859Y-102278571D01*
X122187145Y-102278571D01*
X122044287Y-102207143D01*
X121972859Y-102135714D01*
X121901430Y-101992857D01*
X121901430Y-101564286D01*
X121972859Y-101421429D01*
X122044287Y-101350000D01*
X122187145Y-101278571D01*
X122472859Y-101278571D01*
X122615716Y-101350000D01*
X123330002Y-102278571D02*
X123330002Y-100778571D01*
X123972859Y-102278571D02*
X123972859Y-101492857D01*
X123901430Y-101350000D01*
X123758573Y-101278571D01*
X123544288Y-101278571D01*
X123401430Y-101350000D01*
X123330002Y-101421429D01*
X124472859Y-101278571D02*
X125044288Y-101278571D01*
X124687145Y-100778571D02*
X124687145Y-102064286D01*
X124758573Y-102207143D01*
X124901431Y-102278571D01*
X125044288Y-102278571D01*
X126544288Y-101278571D02*
X126901431Y-102278571D01*
X127258573Y-101278571D01*
X127758573Y-100921429D02*
X127830002Y-100850000D01*
X127972859Y-100778571D01*
X128330002Y-100778571D01*
X128472859Y-100850000D01*
X128544288Y-100921429D01*
X128615716Y-101064286D01*
X128615716Y-101207143D01*
X128544288Y-101421429D01*
X127687145Y-102278571D01*
X128615716Y-102278571D01*
X129258573Y-102135714D02*
X129330001Y-102207143D01*
X129258573Y-102278571D01*
X129187144Y-102207143D01*
X129258573Y-102135714D01*
X129258573Y-102278571D01*
X130758573Y-102278571D02*
X129901430Y-102278571D01*
X130330002Y-102278571D02*
X130330002Y-100778571D01*
X130187145Y-100992857D01*
X130044287Y-101135714D01*
X129901430Y-101207143D01*
X131401430Y-102278571D02*
X131401430Y-101278571D01*
X131401430Y-101564286D02*
X131472858Y-101421429D01*
X131544287Y-101350000D01*
X131687144Y-101278571D01*
X131830001Y-101278571D01*
X132615715Y-100778571D02*
X132758572Y-100778571D01*
X132901429Y-100850000D01*
X132972858Y-100921429D01*
X133044287Y-101064286D01*
X133115715Y-101350000D01*
X133115715Y-101707143D01*
X133044287Y-101992857D01*
X132972858Y-102135714D01*
X132901429Y-102207143D01*
X132758572Y-102278571D01*
X132615715Y-102278571D01*
X132472858Y-102207143D01*
X132401429Y-102135714D01*
X132330001Y-101992857D01*
X132258572Y-101707143D01*
X132258572Y-101350000D01*
X132330001Y-101064286D01*
X132401429Y-100921429D01*
X132472858Y-100850000D01*
X132615715Y-100778571D01*
X134901429Y-101707143D02*
X136044286Y-101707143D01*
X137901429Y-102278571D02*
X137901429Y-100778571D01*
X138401429Y-101850000D01*
X138901429Y-100778571D01*
X138901429Y-102278571D01*
X140258572Y-102278571D02*
X140258572Y-101492857D01*
X140187143Y-101350000D01*
X140044286Y-101278571D01*
X139758572Y-101278571D01*
X139615715Y-101350000D01*
X140258572Y-102207143D02*
X140115715Y-102278571D01*
X139758572Y-102278571D01*
X139615715Y-102207143D01*
X139544286Y-102064286D01*
X139544286Y-101921429D01*
X139615715Y-101778571D01*
X139758572Y-101707143D01*
X140115715Y-101707143D01*
X140258572Y-101635714D01*
X140972858Y-102278571D02*
X140972858Y-101278571D01*
X140972858Y-101564286D02*
X141044286Y-101421429D01*
X141115715Y-101350000D01*
X141258572Y-101278571D01*
X141401429Y-101278571D01*
X142544286Y-102207143D02*
X142401429Y-102278571D01*
X142115715Y-102278571D01*
X141972857Y-102207143D01*
X141901429Y-102135714D01*
X141830000Y-101992857D01*
X141830000Y-101564286D01*
X141901429Y-101421429D01*
X141972857Y-101350000D01*
X142115715Y-101278571D01*
X142401429Y-101278571D01*
X142544286Y-101350000D01*
X143758571Y-102207143D02*
X143615714Y-102278571D01*
X143330000Y-102278571D01*
X143187143Y-102207143D01*
X143115714Y-102064286D01*
X143115714Y-101492857D01*
X143187143Y-101350000D01*
X143330000Y-101278571D01*
X143615714Y-101278571D01*
X143758571Y-101350000D01*
X143830000Y-101492857D01*
X143830000Y-101635714D01*
X143115714Y-101778571D01*
X144687143Y-102278571D02*
X144544285Y-102207143D01*
X144472857Y-102064286D01*
X144472857Y-100778571D01*
X146401428Y-102278571D02*
X146401428Y-100778571D01*
X146901428Y-101850000D01*
X147401428Y-100778571D01*
X147401428Y-102278571D01*
X148330000Y-102278571D02*
X148187142Y-102207143D01*
X148115714Y-102135714D01*
X148044285Y-101992857D01*
X148044285Y-101564286D01*
X148115714Y-101421429D01*
X148187142Y-101350000D01*
X148330000Y-101278571D01*
X148544285Y-101278571D01*
X148687142Y-101350000D01*
X148758571Y-101421429D01*
X148830000Y-101564286D01*
X148830000Y-101992857D01*
X148758571Y-102135714D01*
X148687142Y-102207143D01*
X148544285Y-102278571D01*
X148330000Y-102278571D01*
X149472857Y-102278571D02*
X149472857Y-101278571D01*
X149472857Y-101564286D02*
X149544285Y-101421429D01*
X149615714Y-101350000D01*
X149758571Y-101278571D01*
X149901428Y-101278571D01*
X150972856Y-102207143D02*
X150829999Y-102278571D01*
X150544285Y-102278571D01*
X150401428Y-102207143D01*
X150329999Y-102064286D01*
X150329999Y-101492857D01*
X150401428Y-101350000D01*
X150544285Y-101278571D01*
X150829999Y-101278571D01*
X150972856Y-101350000D01*
X151044285Y-101492857D01*
X151044285Y-101635714D01*
X150329999Y-101778571D01*
X152329999Y-102278571D02*
X152329999Y-101492857D01*
X152258570Y-101350000D01*
X152115713Y-101278571D01*
X151829999Y-101278571D01*
X151687142Y-101350000D01*
X152329999Y-102207143D02*
X152187142Y-102278571D01*
X151829999Y-102278571D01*
X151687142Y-102207143D01*
X151615713Y-102064286D01*
X151615713Y-101921429D01*
X151687142Y-101778571D01*
X151829999Y-101707143D01*
X152187142Y-101707143D01*
X152329999Y-101635714D01*
X153687142Y-101278571D02*
X153687142Y-102278571D01*
X153044285Y-101278571D02*
X153044285Y-102064286D01*
X153115713Y-102207143D01*
X153258571Y-102278571D01*
X153472856Y-102278571D01*
X153615713Y-102207143D01*
X153687142Y-102135714D01*
X154258571Y-102278571D02*
X155044285Y-101278571D01*
X154258571Y-101278571D02*
X155044285Y-102278571D01*
X94198572Y-106723571D02*
X93341429Y-106723571D01*
X93770001Y-106723571D02*
X93770001Y-105223571D01*
X93627144Y-105437857D01*
X93484286Y-105580714D01*
X93341429Y-105652143D01*
X95127143Y-105223571D02*
X95270000Y-105223571D01*
X95412857Y-105295000D01*
X95484286Y-105366429D01*
X95555715Y-105509286D01*
X95627143Y-105795000D01*
X95627143Y-106152143D01*
X95555715Y-106437857D01*
X95484286Y-106580714D01*
X95412857Y-106652143D01*
X95270000Y-106723571D01*
X95127143Y-106723571D01*
X94984286Y-106652143D01*
X94912857Y-106580714D01*
X94841429Y-106437857D01*
X94770000Y-106152143D01*
X94770000Y-105795000D01*
X94841429Y-105509286D01*
X94912857Y-105366429D01*
X94984286Y-105295000D01*
X95127143Y-105223571D01*
X96555714Y-105223571D02*
X96698571Y-105223571D01*
X96841428Y-105295000D01*
X96912857Y-105366429D01*
X96984286Y-105509286D01*
X97055714Y-105795000D01*
X97055714Y-106152143D01*
X96984286Y-106437857D01*
X96912857Y-106580714D01*
X96841428Y-106652143D01*
X96698571Y-106723571D01*
X96555714Y-106723571D01*
X96412857Y-106652143D01*
X96341428Y-106580714D01*
X96270000Y-106437857D01*
X96198571Y-106152143D01*
X96198571Y-105795000D01*
X96270000Y-105509286D01*
X96341428Y-105366429D01*
X96412857Y-105295000D01*
X96555714Y-105223571D01*
X97912857Y-105223571D02*
X97769999Y-105295000D01*
X97698571Y-105437857D01*
X97769999Y-105580714D01*
X97912857Y-105652143D01*
X98055714Y-105580714D01*
X98127142Y-105437857D01*
X98055714Y-105295000D01*
X97912857Y-105223571D01*
X99698571Y-106580714D02*
X99627142Y-106652143D01*
X99412856Y-106723571D01*
X99269999Y-106723571D01*
X99055714Y-106652143D01*
X98912856Y-106509286D01*
X98841428Y-106366429D01*
X98769999Y-106080714D01*
X98769999Y-105866429D01*
X98841428Y-105580714D01*
X98912856Y-105437857D01*
X99055714Y-105295000D01*
X99269999Y-105223571D01*
X99412856Y-105223571D01*
X99627142Y-105295000D01*
X99698571Y-105366429D01*
X73144286Y-119193571D02*
X74001429Y-119193571D01*
X73572858Y-120693571D02*
X73572858Y-119193571D01*
X75287143Y-120693571D02*
X74430000Y-120693571D01*
X74858572Y-120693571D02*
X74858572Y-119193571D01*
X74715715Y-119407857D01*
X74572857Y-119550714D01*
X74430000Y-119622143D01*
X75858571Y-120265000D02*
X76572857Y-120265000D01*
X75715714Y-120693571D02*
X76215714Y-119193571D01*
X76715714Y-120693571D01*
X152205715Y-89578571D02*
X152205715Y-88078571D01*
X152848572Y-89507143D02*
X153062858Y-89578571D01*
X153420001Y-89578571D01*
X153562858Y-89507143D01*
X153634287Y-89435714D01*
X153705715Y-89292857D01*
X153705715Y-89150000D01*
X153634287Y-89007143D01*
X153562858Y-88935714D01*
X153420001Y-88864286D01*
X153134287Y-88792857D01*
X152991429Y-88721429D01*
X152920001Y-88650000D01*
X152848572Y-88507143D01*
X152848572Y-88364286D01*
X152920001Y-88221429D01*
X152991429Y-88150000D01*
X153134287Y-88078571D01*
X153491429Y-88078571D01*
X153705715Y-88150000D01*
X154348572Y-89578571D02*
X154348572Y-88078571D01*
X154920000Y-88078571D01*
X155062858Y-88150000D01*
X155134286Y-88221429D01*
X155205715Y-88364286D01*
X155205715Y-88578571D01*
X155134286Y-88721429D01*
X155062858Y-88792857D01*
X154920000Y-88864286D01*
X154348572Y-88864286D01*
X91857143Y-76092857D02*
X92071429Y-76164286D01*
X92142857Y-76235714D01*
X92214286Y-76378571D01*
X92214286Y-76592857D01*
X92142857Y-76735714D01*
X92071429Y-76807143D01*
X91928571Y-76878571D01*
X91357143Y-76878571D01*
X91357143Y-75378571D01*
X91857143Y-75378571D01*
X92000000Y-75450000D01*
X92071429Y-75521429D01*
X92142857Y-75664286D01*
X92142857Y-75807143D01*
X92071429Y-75950000D01*
X92000000Y-76021429D01*
X91857143Y-76092857D01*
X91357143Y-76092857D01*
X92857143Y-75378571D02*
X92857143Y-76592857D01*
X92928571Y-76735714D01*
X93000000Y-76807143D01*
X93142857Y-76878571D01*
X93428571Y-76878571D01*
X93571429Y-76807143D01*
X93642857Y-76735714D01*
X93714286Y-76592857D01*
X93714286Y-75378571D01*
X94214286Y-75378571D02*
X95071429Y-75378571D01*
X94642858Y-76878571D02*
X94642858Y-75378571D01*
X95357143Y-75378571D02*
X96214286Y-75378571D01*
X95785715Y-76878571D02*
X95785715Y-75378571D01*
X97000000Y-75378571D02*
X97285714Y-75378571D01*
X97428572Y-75450000D01*
X97571429Y-75592857D01*
X97642857Y-75878571D01*
X97642857Y-76378571D01*
X97571429Y-76664286D01*
X97428572Y-76807143D01*
X97285714Y-76878571D01*
X97000000Y-76878571D01*
X96857143Y-76807143D01*
X96714286Y-76664286D01*
X96642857Y-76378571D01*
X96642857Y-75878571D01*
X96714286Y-75592857D01*
X96857143Y-75450000D01*
X97000000Y-75378571D01*
X98285715Y-76878571D02*
X98285715Y-75378571D01*
X99142858Y-76878571D01*
X99142858Y-75378571D01*
X96357857Y-87522857D02*
X95857857Y-87522857D01*
X95857857Y-88308571D02*
X95857857Y-86808571D01*
X96572143Y-86808571D01*
X97143571Y-86808571D02*
X97143571Y-88022857D01*
X97214999Y-88165714D01*
X97286428Y-88237143D01*
X97429285Y-88308571D01*
X97714999Y-88308571D01*
X97857857Y-88237143D01*
X97929285Y-88165714D01*
X98000714Y-88022857D01*
X98000714Y-86808571D01*
X98715000Y-88308571D02*
X98715000Y-86808571D01*
X99572143Y-88308571D01*
X99572143Y-86808571D01*
X101143572Y-88165714D02*
X101072143Y-88237143D01*
X100857857Y-88308571D01*
X100715000Y-88308571D01*
X100500715Y-88237143D01*
X100357857Y-88094286D01*
X100286429Y-87951429D01*
X100215000Y-87665714D01*
X100215000Y-87451429D01*
X100286429Y-87165714D01*
X100357857Y-87022857D01*
X100500715Y-86880000D01*
X100715000Y-86808571D01*
X100857857Y-86808571D01*
X101072143Y-86880000D01*
X101143572Y-86951429D01*
X101572143Y-86808571D02*
X102429286Y-86808571D01*
X102000715Y-88308571D02*
X102000715Y-86808571D01*
X102929286Y-88308571D02*
X102929286Y-86808571D01*
X103929286Y-86808571D02*
X104215000Y-86808571D01*
X104357858Y-86880000D01*
X104500715Y-87022857D01*
X104572143Y-87308571D01*
X104572143Y-87808571D01*
X104500715Y-88094286D01*
X104357858Y-88237143D01*
X104215000Y-88308571D01*
X103929286Y-88308571D01*
X103786429Y-88237143D01*
X103643572Y-88094286D01*
X103572143Y-87808571D01*
X103572143Y-87308571D01*
X103643572Y-87022857D01*
X103786429Y-86880000D01*
X103929286Y-86808571D01*
X105215001Y-88308571D02*
X105215001Y-86808571D01*
X106072144Y-88308571D01*
X106072144Y-86808571D01*
X98770714Y-101008571D02*
X98770714Y-99508571D01*
X99342142Y-99508571D01*
X99485000Y-99580000D01*
X99556428Y-99651429D01*
X99627857Y-99794286D01*
X99627857Y-100008571D01*
X99556428Y-100151429D01*
X99485000Y-100222857D01*
X99342142Y-100294286D01*
X98770714Y-100294286D01*
X100556428Y-99508571D02*
X100842142Y-99508571D01*
X100985000Y-99580000D01*
X101127857Y-99722857D01*
X101199285Y-100008571D01*
X101199285Y-100508571D01*
X101127857Y-100794286D01*
X100985000Y-100937143D01*
X100842142Y-101008571D01*
X100556428Y-101008571D01*
X100413571Y-100937143D01*
X100270714Y-100794286D01*
X100199285Y-100508571D01*
X100199285Y-100008571D01*
X100270714Y-99722857D01*
X100413571Y-99580000D01*
X100556428Y-99508571D01*
X101699286Y-99508571D02*
X102056429Y-101008571D01*
X102342143Y-99937143D01*
X102627857Y-101008571D01*
X102985000Y-99508571D01*
X103556429Y-100222857D02*
X104056429Y-100222857D01*
X104270715Y-101008571D02*
X103556429Y-101008571D01*
X103556429Y-99508571D01*
X104270715Y-99508571D01*
X105770715Y-101008571D02*
X105270715Y-100294286D01*
X104913572Y-101008571D02*
X104913572Y-99508571D01*
X105485000Y-99508571D01*
X105627858Y-99580000D01*
X105699286Y-99651429D01*
X105770715Y-99794286D01*
X105770715Y-100008571D01*
X105699286Y-100151429D01*
X105627858Y-100222857D01*
X105485000Y-100294286D01*
X104913572Y-100294286D01*
X103695715Y-140378571D02*
X102981429Y-140378571D01*
X102981429Y-138878571D01*
X104481429Y-138878571D02*
X104767143Y-138878571D01*
X104910001Y-138950000D01*
X105052858Y-139092857D01*
X105124286Y-139378571D01*
X105124286Y-139878571D01*
X105052858Y-140164286D01*
X104910001Y-140307143D01*
X104767143Y-140378571D01*
X104481429Y-140378571D01*
X104338572Y-140307143D01*
X104195715Y-140164286D01*
X104124286Y-139878571D01*
X104124286Y-139378571D01*
X104195715Y-139092857D01*
X104338572Y-138950000D01*
X104481429Y-138878571D01*
X105695715Y-139950000D02*
X106410001Y-139950000D01*
X105552858Y-140378571D02*
X106052858Y-138878571D01*
X106552858Y-140378571D01*
X107052858Y-140378571D02*
X107052858Y-138878571D01*
X107410001Y-138878571D01*
X107624286Y-138950000D01*
X107767144Y-139092857D01*
X107838572Y-139235714D01*
X107910001Y-139521429D01*
X107910001Y-139735714D01*
X107838572Y-140021429D01*
X107767144Y-140164286D01*
X107624286Y-140307143D01*
X107410001Y-140378571D01*
X107052858Y-140378571D01*
X63675000Y-140378571D02*
X63675000Y-138878571D01*
X64175000Y-139950000D01*
X64675000Y-138878571D01*
X64675000Y-140378571D01*
X65317857Y-139950000D02*
X66032143Y-139950000D01*
X65175000Y-140378571D02*
X65675000Y-138878571D01*
X66175000Y-140378571D01*
X66675000Y-140378571D02*
X66675000Y-138878571D01*
X67389286Y-140378571D02*
X67389286Y-138878571D01*
X68246429Y-140378571D01*
X68246429Y-138878571D01*
X68889286Y-140307143D02*
X69103572Y-140378571D01*
X69460715Y-140378571D01*
X69603572Y-140307143D01*
X69675001Y-140235714D01*
X69746429Y-140092857D01*
X69746429Y-139950000D01*
X69675001Y-139807143D01*
X69603572Y-139735714D01*
X69460715Y-139664286D01*
X69175001Y-139592857D01*
X69032143Y-139521429D01*
X68960715Y-139450000D01*
X68889286Y-139307143D01*
X68889286Y-139164286D01*
X68960715Y-139021429D01*
X69032143Y-138950000D01*
X69175001Y-138878571D01*
X69532143Y-138878571D01*
X69746429Y-138950000D01*
D12*
X127135000Y-81525000D02*
X127135000Y-82795000D01*
X134485000Y-81525000D02*
X134485000Y-82795000D01*
X134485000Y-93735000D02*
X134485000Y-92465000D01*
X127135000Y-93735000D02*
X127135000Y-92465000D01*
X127135000Y-81525000D02*
X134485000Y-81525000D01*
X127135000Y-93735000D02*
X134485000Y-93735000D01*
X127135000Y-82795000D02*
X126200000Y-82795000D01*
X142748000Y-120396000D02*
X141605000Y-120396000D01*
X142748000Y-123444000D02*
X141605000Y-123444000D01*
X141605000Y-127254000D02*
X137922000Y-127254000D01*
X137922000Y-127254000D02*
X137922000Y-116586000D01*
X137922000Y-116586000D02*
X141605000Y-116586000D01*
X142748000Y-127254000D02*
X141605000Y-127254000D01*
X141605000Y-127254000D02*
X141605000Y-116586000D01*
X141605000Y-116586000D02*
X142748000Y-116586000D01*
X142748000Y-121920000D02*
X142748000Y-116586000D01*
X142748000Y-121920000D02*
X142748000Y-127254000D01*
X114300000Y-140970000D02*
X114300000Y-124714000D01*
X114300000Y-105410000D02*
X114300000Y-121666000D01*
X129540000Y-121666000D02*
X129540000Y-105410000D01*
X129540000Y-140970000D02*
X129540000Y-124714000D01*
X114300000Y-140970000D02*
X129540000Y-140970000D01*
X129540000Y-105410000D02*
X114300000Y-105410000D01*
X72565000Y-106275000D02*
X72565000Y-88275000D01*
X72565000Y-88275000D02*
X78565000Y-88275000D01*
X78565000Y-88275000D02*
X78565000Y-106275000D01*
X78565000Y-106275000D02*
X72565000Y-106275000D01*
X61135000Y-106275000D02*
X61135000Y-88275000D01*
X61135000Y-88275000D02*
X67135000Y-88275000D01*
X67135000Y-88275000D02*
X67135000Y-106275000D01*
X67135000Y-106275000D02*
X61135000Y-106275000D01*
X87441000Y-90735000D02*
X95439000Y-90735000D01*
X87446000Y-90595000D02*
X95434000Y-90595000D01*
X87456000Y-90455000D02*
X95424000Y-90455000D01*
X87471000Y-90315000D02*
X95409000Y-90315000D01*
X87491000Y-90175000D02*
X95389000Y-90175000D01*
X87516000Y-90035000D02*
X95364000Y-90035000D01*
X87546000Y-89895000D02*
X91267000Y-89895000D01*
X91613000Y-89895000D02*
X95334000Y-89895000D01*
X87582000Y-89755000D02*
X90905000Y-89755000D01*
X91975000Y-89755000D02*
X95298000Y-89755000D01*
X87623000Y-89615000D02*
X90731000Y-89615000D01*
X92149000Y-89615000D02*
X95257000Y-89615000D01*
X87669000Y-89475000D02*
X90615000Y-89475000D01*
X92265000Y-89475000D02*
X95211000Y-89475000D01*
X87722000Y-89335000D02*
X90535000Y-89335000D01*
X92345000Y-89335000D02*
X95158000Y-89335000D01*
X87781000Y-89195000D02*
X90481000Y-89195000D01*
X92399000Y-89195000D02*
X95099000Y-89195000D01*
X87846000Y-89055000D02*
X90451000Y-89055000D01*
X92429000Y-89055000D02*
X95034000Y-89055000D01*
X87917000Y-88915000D02*
X90440000Y-88915000D01*
X92440000Y-88915000D02*
X94963000Y-88915000D01*
X87996000Y-88775000D02*
X90449000Y-88775000D01*
X92431000Y-88775000D02*
X94884000Y-88775000D01*
X88083000Y-88635000D02*
X90479000Y-88635000D01*
X92401000Y-88635000D02*
X94797000Y-88635000D01*
X88178000Y-88495000D02*
X90530000Y-88495000D01*
X92350000Y-88495000D02*
X94702000Y-88495000D01*
X88282000Y-88355000D02*
X90608000Y-88355000D01*
X92272000Y-88355000D02*
X94598000Y-88355000D01*
X88396000Y-88215000D02*
X90721000Y-88215000D01*
X92159000Y-88215000D02*
X94484000Y-88215000D01*
X88521000Y-88075000D02*
X90890000Y-88075000D01*
X91990000Y-88075000D02*
X94359000Y-88075000D01*
X88659000Y-87935000D02*
X91218000Y-87935000D01*
X91662000Y-87935000D02*
X94221000Y-87935000D01*
X88811000Y-87795000D02*
X94069000Y-87795000D01*
X88981000Y-87655000D02*
X93899000Y-87655000D01*
X89172000Y-87515000D02*
X93708000Y-87515000D01*
X89390000Y-87375000D02*
X93490000Y-87375000D01*
X89646000Y-87235000D02*
X93234000Y-87235000D01*
X89957000Y-87095000D02*
X92923000Y-87095000D01*
X90373000Y-86955000D02*
X92507000Y-86955000D01*
X91240000Y-86815000D02*
X91640000Y-86815000D01*
X92440000Y-88910000D02*
G75*
G03X92440000Y-88910000I-1000000J0D01*
G01*
X95477500Y-90810000D02*
G75*
G03X95477500Y-90810000I-4037500J0D01*
G01*
X133850000Y-98770000D02*
X127850000Y-98770000D01*
X127850000Y-94270000D02*
X133850000Y-94270000D01*
X104315000Y-125720000D02*
X104315000Y-107720000D01*
X104315000Y-107720000D02*
X110315000Y-107720000D01*
X110315000Y-107720000D02*
X110315000Y-125720000D01*
X110315000Y-125720000D02*
X104315000Y-125720000D01*
X81277460Y-85343480D02*
X81277460Y-83946480D01*
X81277460Y-89788480D02*
X81277460Y-91312480D01*
X80515460Y-89407480D02*
X82039460Y-89407480D01*
X80515460Y-89661480D02*
X82039460Y-89661480D01*
X81277460Y-89915480D02*
X82039460Y-89915480D01*
X82039460Y-89915480D02*
X82039460Y-85343480D01*
X82039460Y-85343480D02*
X80515460Y-85343480D01*
X80515460Y-85343480D02*
X80515460Y-89915480D01*
X80515460Y-89915480D02*
X81277460Y-89915480D01*
X82550000Y-77467460D02*
X83566000Y-77467460D01*
X77724000Y-77467460D02*
X76454000Y-77467460D01*
X77978000Y-76197460D02*
X77978000Y-78737460D01*
X78232000Y-76197460D02*
X78232000Y-78737460D01*
X78486000Y-76197460D02*
X78486000Y-78737460D01*
X77724000Y-76197460D02*
X77724000Y-78737460D01*
X78740000Y-76197460D02*
X77470000Y-78737460D01*
X77470000Y-76197460D02*
X78740000Y-78737460D01*
X78740000Y-76197460D02*
X78740000Y-78737460D01*
X78105000Y-76197460D02*
X78105000Y-78737460D01*
X77470000Y-78737460D02*
X77470000Y-76197460D01*
X77470000Y-76197460D02*
X82550000Y-76197460D01*
X82550000Y-76197460D02*
X82550000Y-78737460D01*
X82550000Y-78737460D02*
X77470000Y-78737460D01*
X92710000Y-82547460D02*
X93726000Y-82547460D01*
X87884000Y-82547460D02*
X86614000Y-82547460D01*
X88138000Y-81277460D02*
X88138000Y-83817460D01*
X88392000Y-81277460D02*
X88392000Y-83817460D01*
X88646000Y-81277460D02*
X88646000Y-83817460D01*
X87884000Y-81277460D02*
X87884000Y-83817460D01*
X88900000Y-81277460D02*
X87630000Y-83817460D01*
X87630000Y-81277460D02*
X88900000Y-83817460D01*
X88900000Y-81277460D02*
X88900000Y-83817460D01*
X88265000Y-81277460D02*
X88265000Y-83817460D01*
X87630000Y-83817460D02*
X87630000Y-81277460D01*
X87630000Y-81277460D02*
X92710000Y-81277460D01*
X92710000Y-81277460D02*
X92710000Y-83817460D01*
X92710000Y-83817460D02*
X87630000Y-83817460D01*
X101401000Y-97834000D02*
X101401000Y-97634000D01*
X101401000Y-95240000D02*
X101401000Y-95420000D01*
X104628744Y-95550357D02*
G75*
G03X101401000Y-95234000I-1727744J-1003643D01*
G01*
X103953006Y-95420932D02*
G75*
G03X101850000Y-95420000I-1052006J-1133068D01*
G01*
X101413780Y-97860726D02*
G75*
G03X104651000Y-97514000I1497220J1306726D01*
G01*
X101887111Y-97633253D02*
G75*
G03X103935000Y-97614000I1013889J1079253D01*
G01*
X101401000Y-92754000D02*
X101401000Y-92554000D01*
X101401000Y-90160000D02*
X101401000Y-90340000D01*
X104628744Y-90470357D02*
G75*
G03X101401000Y-90154000I-1727744J-1003643D01*
G01*
X103953006Y-90340932D02*
G75*
G03X101850000Y-90340000I-1052006J-1133068D01*
G01*
X101413780Y-92780726D02*
G75*
G03X104651000Y-92434000I1497220J1306726D01*
G01*
X101887111Y-92553253D02*
G75*
G03X103935000Y-92534000I1013889J1079253D01*
G01*
X89611200Y-125095000D02*
X83108800Y-125095000D01*
X89611200Y-121594880D02*
X89611200Y-128595120D01*
X98358960Y-128595120D02*
X89611200Y-128595120D01*
X98358960Y-121594880D02*
X89611200Y-121594880D01*
X75610720Y-127594360D02*
X74361040Y-127594360D01*
X75859640Y-122595640D02*
X74361040Y-122595640D01*
X87861140Y-127594360D02*
X75610720Y-127594360D01*
X87609680Y-122595640D02*
X75859640Y-122595640D01*
X98358960Y-127594360D02*
X87861140Y-127594360D01*
X98358960Y-122595640D02*
X87609680Y-122595640D01*
X98358960Y-122595640D02*
X98358960Y-127594360D01*
X99359720Y-121594880D02*
X98358960Y-121594880D01*
X99359720Y-121594880D02*
X99359720Y-128595120D01*
X99359720Y-128595120D02*
X98358960Y-128595120D01*
X74361040Y-122595640D02*
X74361040Y-127594360D01*
X83108800Y-121594880D02*
X73360280Y-121594880D01*
X73360280Y-121594880D02*
X73360280Y-128595120D01*
X83108800Y-128595120D02*
X73360280Y-128595120D01*
X83108800Y-121594880D02*
X83108800Y-128595120D01*
X71120000Y-134620000D02*
X86360000Y-134620000D01*
X71120000Y-133350000D02*
X71120000Y-140970000D01*
X71120000Y-140970000D02*
X86360000Y-140970000D01*
X86360000Y-140970000D02*
X86360000Y-133350000D01*
X86360000Y-133350000D02*
X71120000Y-133350000D01*
X86360000Y-134620000D02*
X101600000Y-134620000D01*
X86360000Y-133350000D02*
X86360000Y-140970000D01*
X86360000Y-140970000D02*
X101600000Y-140970000D01*
X101600000Y-140970000D02*
X101600000Y-133350000D01*
X101600000Y-133350000D02*
X86360000Y-133350000D01*
X74810000Y-113030000D02*
X74810000Y-110490000D01*
X74810000Y-110490000D02*
X64650000Y-110490000D01*
X64650000Y-110490000D02*
X64650000Y-113030000D01*
X64650000Y-113030000D02*
X74810000Y-113030000D01*
X63500000Y-111760000D02*
X64650000Y-111760000D01*
X75960000Y-111760000D02*
X74810000Y-111760000D01*
X116840000Y-97790000D02*
X111760000Y-97790000D01*
X111760000Y-97790000D02*
X111760000Y-95250000D01*
X111760000Y-95250000D02*
X116840000Y-95250000D01*
X116840000Y-95250000D02*
X116840000Y-97790000D01*
X116840000Y-96520000D02*
X118110000Y-96520000D01*
X111760000Y-96520000D02*
X110490000Y-96520000D01*
X116840000Y-92710000D02*
X111760000Y-92710000D01*
X111760000Y-92710000D02*
X111760000Y-90170000D01*
X111760000Y-90170000D02*
X116840000Y-90170000D01*
X116840000Y-90170000D02*
X116840000Y-92710000D01*
X116840000Y-91440000D02*
X118110000Y-91440000D01*
X111760000Y-91440000D02*
X110490000Y-91440000D01*
X116840000Y-78740000D02*
X111760000Y-78740000D01*
X111760000Y-78740000D02*
X111760000Y-76200000D01*
X111760000Y-76200000D02*
X116840000Y-76200000D01*
X116840000Y-76200000D02*
X116840000Y-78740000D01*
X116840000Y-77470000D02*
X118110000Y-77470000D01*
X111760000Y-77470000D02*
X110490000Y-77470000D01*
X111760000Y-83820000D02*
X106680000Y-83820000D01*
X106680000Y-83820000D02*
X106680000Y-81280000D01*
X106680000Y-81280000D02*
X111760000Y-81280000D01*
X111760000Y-81280000D02*
X111760000Y-83820000D01*
X111760000Y-82550000D02*
X113030000Y-82550000D01*
X106680000Y-82550000D02*
X105410000Y-82550000D01*
X86995000Y-104775000D02*
X86995000Y-99695000D01*
X86995000Y-99695000D02*
X89535000Y-99695000D01*
X89535000Y-99695000D02*
X89535000Y-104775000D01*
X89535000Y-104775000D02*
X86995000Y-104775000D01*
X88265000Y-104775000D02*
X88265000Y-106045000D01*
X88265000Y-99695000D02*
X88265000Y-98425000D01*
X83820000Y-114935000D02*
X83820000Y-109855000D01*
X83820000Y-109855000D02*
X86360000Y-109855000D01*
X86360000Y-109855000D02*
X86360000Y-114935000D01*
X86360000Y-114935000D02*
X83820000Y-114935000D01*
X85090000Y-114935000D02*
X85090000Y-116205000D01*
X85090000Y-109855000D02*
X85090000Y-108585000D01*
X128270000Y-77470000D02*
X133350000Y-77470000D01*
X133350000Y-77470000D02*
X133350000Y-80010000D01*
X133350000Y-80010000D02*
X128270000Y-80010000D01*
X128270000Y-80010000D02*
X128270000Y-77470000D01*
X128270000Y-78740000D02*
X127000000Y-78740000D01*
X133350000Y-78740000D02*
X134620000Y-78740000D01*
X147955000Y-95885000D02*
X142875000Y-95885000D01*
X142875000Y-95885000D02*
X142875000Y-93345000D01*
X142875000Y-93345000D02*
X147955000Y-93345000D01*
X147955000Y-93345000D02*
X147955000Y-95885000D01*
X147955000Y-94615000D02*
X149225000Y-94615000D01*
X142875000Y-94615000D02*
X141605000Y-94615000D01*
X144653000Y-123698000D02*
X146177000Y-123698000D01*
X144653000Y-120142000D02*
X146177000Y-120142000D01*
X151765000Y-130429000D02*
X151765000Y-129921000D01*
X139065000Y-104394000D02*
X141859000Y-109855000D01*
X141859000Y-109855000D02*
X139065000Y-109220000D01*
X142748000Y-131953000D02*
X139065000Y-134620000D01*
X139065000Y-134620000D02*
X141859000Y-134112000D01*
X141859000Y-134112000D02*
X139065000Y-139446000D01*
X148082000Y-132080000D02*
X151765000Y-134620000D01*
X151765000Y-134620000D02*
X149098000Y-134112000D01*
X149098000Y-134112000D02*
X151765000Y-139446000D01*
X147955000Y-137160000D02*
X151765000Y-139446000D01*
X142875000Y-137160000D02*
X139065000Y-139446000D01*
X139065000Y-113919000D02*
X139065000Y-113538000D01*
X151765000Y-113919000D02*
X151765000Y-113411000D01*
X148082000Y-111887000D02*
X151765000Y-109220000D01*
X151765000Y-109220000D02*
X148971000Y-109855000D01*
X148971000Y-109855000D02*
X151765000Y-104394000D01*
X147828000Y-106680000D02*
X148717000Y-104394000D01*
X148717000Y-104394000D02*
X146939000Y-105918000D01*
X151765000Y-104394000D02*
X147828000Y-106680000D01*
X142875000Y-106680000D02*
X142113000Y-104521000D01*
X142113000Y-104521000D02*
X143637000Y-106045000D01*
X139065000Y-104394000D02*
X142875000Y-106680000D01*
X142748000Y-111760000D02*
X139065000Y-109220000D01*
X151765000Y-113411000D02*
X148082000Y-111887000D01*
X139065000Y-113411000D02*
X142748000Y-111760000D01*
X151765000Y-130429000D02*
X147955000Y-132080000D01*
X139065000Y-129921000D02*
X139065000Y-130429000D01*
X139065000Y-130429000D02*
X142748000Y-131953000D01*
X148717000Y-139446000D02*
X147320000Y-137668000D01*
X142113000Y-139573000D02*
X143637000Y-137795000D01*
X148717000Y-139446000D02*
X147955000Y-137160000D01*
X142113000Y-139446000D02*
X142875000Y-137160000D01*
X146177000Y-121920000D02*
X146177000Y-129921000D01*
X146177000Y-129921000D02*
X151765000Y-129921000D01*
X146177000Y-121920000D02*
X146177000Y-113919000D01*
X146177000Y-113919000D02*
X151765000Y-113919000D01*
X144653000Y-121920000D02*
X144653000Y-129921000D01*
X144653000Y-129921000D02*
X139065000Y-129921000D01*
X144653000Y-121920000D02*
X144653000Y-113919000D01*
X144653000Y-113919000D02*
X139065000Y-113919000D01*
X68580000Y-105410000D02*
X68580000Y-100330000D01*
X68580000Y-100330000D02*
X71120000Y-100330000D01*
X71120000Y-100330000D02*
X71120000Y-105410000D01*
X71120000Y-105410000D02*
X68580000Y-105410000D01*
X68580000Y-94615000D02*
X68580000Y-89535000D01*
X68580000Y-89535000D02*
X71120000Y-89535000D01*
X71120000Y-89535000D02*
X71120000Y-94615000D01*
X71120000Y-94615000D02*
X68580000Y-94615000D01*
X102870000Y-78740000D02*
X100330000Y-78740000D01*
X105690000Y-79020000D02*
X104140000Y-79020000D01*
X102870000Y-78740000D02*
X102870000Y-76200000D01*
X104140000Y-75920000D02*
X105690000Y-75920000D01*
X105690000Y-75920000D02*
X105690000Y-79020000D01*
X102870000Y-76200000D02*
X100330000Y-76200000D01*
X100330000Y-76200000D02*
X100330000Y-78740000D01*
X142875000Y-82550000D02*
X142875000Y-87630000D01*
X142595000Y-79730000D02*
X144145000Y-79730000D01*
X145415000Y-80010000D02*
X145415000Y-82550000D01*
X145415000Y-82550000D02*
X142875000Y-82550000D01*
X142875000Y-87630000D02*
X147955000Y-87630000D01*
X147955000Y-87630000D02*
X147955000Y-82550000D01*
X142595000Y-79730000D02*
X142595000Y-81280000D01*
X147955000Y-80010000D02*
X145415000Y-80010000D01*
X147955000Y-82550000D02*
X147955000Y-80010000D01*
X94520000Y-120720000D02*
X94520000Y-107720000D01*
X94520000Y-107720000D02*
X98520000Y-107720000D01*
X98520000Y-107720000D02*
X98520000Y-120720000D01*
X98520000Y-120720000D02*
X94520000Y-120720000D01*
X123483810Y-83002381D02*
X123483810Y-82002381D01*
X124531429Y-82907143D02*
X124483810Y-82954762D01*
X124340953Y-83002381D01*
X124245715Y-83002381D01*
X124102857Y-82954762D01*
X124007619Y-82859524D01*
X123960000Y-82764286D01*
X123912381Y-82573810D01*
X123912381Y-82430952D01*
X123960000Y-82240476D01*
X124007619Y-82145238D01*
X124102857Y-82050000D01*
X124245715Y-82002381D01*
X124340953Y-82002381D01*
X124483810Y-82050000D01*
X124531429Y-82097619D01*
X125483810Y-83002381D02*
X124912381Y-83002381D01*
X125198095Y-83002381D02*
X125198095Y-82002381D01*
X125102857Y-82145238D01*
X125007619Y-82240476D01*
X124912381Y-82288095D01*
X136421905Y-129357381D02*
X136421905Y-128357381D01*
X136660000Y-128357381D01*
X136802858Y-128405000D01*
X136898096Y-128500238D01*
X136945715Y-128595476D01*
X136993334Y-128785952D01*
X136993334Y-128928810D01*
X136945715Y-129119286D01*
X136898096Y-129214524D01*
X136802858Y-129309762D01*
X136660000Y-129357381D01*
X136421905Y-129357381D01*
X137850477Y-128357381D02*
X137660000Y-128357381D01*
X137564762Y-128405000D01*
X137517143Y-128452619D01*
X137421905Y-128595476D01*
X137374286Y-128785952D01*
X137374286Y-129166905D01*
X137421905Y-129262143D01*
X137469524Y-129309762D01*
X137564762Y-129357381D01*
X137755239Y-129357381D01*
X137850477Y-129309762D01*
X137898096Y-129262143D01*
X137945715Y-129166905D01*
X137945715Y-128928810D01*
X137898096Y-128833571D01*
X137850477Y-128785952D01*
X137755239Y-128738333D01*
X137564762Y-128738333D01*
X137469524Y-128785952D01*
X137421905Y-128833571D01*
X137374286Y-128928810D01*
X114133334Y-104592381D02*
X113657143Y-104592381D01*
X113657143Y-103592381D01*
X114990477Y-104592381D02*
X114419048Y-104592381D01*
X114704762Y-104592381D02*
X114704762Y-103592381D01*
X114609524Y-103735238D01*
X114514286Y-103830476D01*
X114419048Y-103878095D01*
X78573334Y-108307143D02*
X78525715Y-108354762D01*
X78382858Y-108402381D01*
X78287620Y-108402381D01*
X78144762Y-108354762D01*
X78049524Y-108259524D01*
X78001905Y-108164286D01*
X77954286Y-107973810D01*
X77954286Y-107830952D01*
X78001905Y-107640476D01*
X78049524Y-107545238D01*
X78144762Y-107450000D01*
X78287620Y-107402381D01*
X78382858Y-107402381D01*
X78525715Y-107450000D01*
X78573334Y-107497619D01*
X79525715Y-108402381D02*
X78954286Y-108402381D01*
X79240000Y-108402381D02*
X79240000Y-107402381D01*
X79144762Y-107545238D01*
X79049524Y-107640476D01*
X78954286Y-107688095D01*
X60793334Y-108307143D02*
X60745715Y-108354762D01*
X60602858Y-108402381D01*
X60507620Y-108402381D01*
X60364762Y-108354762D01*
X60269524Y-108259524D01*
X60221905Y-108164286D01*
X60174286Y-107973810D01*
X60174286Y-107830952D01*
X60221905Y-107640476D01*
X60269524Y-107545238D01*
X60364762Y-107450000D01*
X60507620Y-107402381D01*
X60602858Y-107402381D01*
X60745715Y-107450000D01*
X60793334Y-107497619D01*
X61174286Y-107497619D02*
X61221905Y-107450000D01*
X61317143Y-107402381D01*
X61555239Y-107402381D01*
X61650477Y-107450000D01*
X61698096Y-107497619D01*
X61745715Y-107592857D01*
X61745715Y-107688095D01*
X61698096Y-107830952D01*
X61126667Y-108402381D01*
X61745715Y-108402381D01*
X86193334Y-87987143D02*
X86145715Y-88034762D01*
X86002858Y-88082381D01*
X85907620Y-88082381D01*
X85764762Y-88034762D01*
X85669524Y-87939524D01*
X85621905Y-87844286D01*
X85574286Y-87653810D01*
X85574286Y-87510952D01*
X85621905Y-87320476D01*
X85669524Y-87225238D01*
X85764762Y-87130000D01*
X85907620Y-87082381D01*
X86002858Y-87082381D01*
X86145715Y-87130000D01*
X86193334Y-87177619D01*
X86526667Y-87082381D02*
X87145715Y-87082381D01*
X86812381Y-87463333D01*
X86955239Y-87463333D01*
X87050477Y-87510952D01*
X87098096Y-87558571D01*
X87145715Y-87653810D01*
X87145715Y-87891905D01*
X87098096Y-87987143D01*
X87050477Y-88034762D01*
X86955239Y-88082381D01*
X86669524Y-88082381D01*
X86574286Y-88034762D01*
X86526667Y-87987143D01*
X135723334Y-95607143D02*
X135675715Y-95654762D01*
X135532858Y-95702381D01*
X135437620Y-95702381D01*
X135294762Y-95654762D01*
X135199524Y-95559524D01*
X135151905Y-95464286D01*
X135104286Y-95273810D01*
X135104286Y-95130952D01*
X135151905Y-94940476D01*
X135199524Y-94845238D01*
X135294762Y-94750000D01*
X135437620Y-94702381D01*
X135532858Y-94702381D01*
X135675715Y-94750000D01*
X135723334Y-94797619D01*
X136580477Y-95035714D02*
X136580477Y-95702381D01*
X136342381Y-94654762D02*
X136104286Y-95369048D01*
X136723334Y-95369048D01*
X103973334Y-106402143D02*
X103925715Y-106449762D01*
X103782858Y-106497381D01*
X103687620Y-106497381D01*
X103544762Y-106449762D01*
X103449524Y-106354524D01*
X103401905Y-106259286D01*
X103354286Y-106068810D01*
X103354286Y-105925952D01*
X103401905Y-105735476D01*
X103449524Y-105640238D01*
X103544762Y-105545000D01*
X103687620Y-105497381D01*
X103782858Y-105497381D01*
X103925715Y-105545000D01*
X103973334Y-105592619D01*
X104878096Y-105497381D02*
X104401905Y-105497381D01*
X104354286Y-105973571D01*
X104401905Y-105925952D01*
X104497143Y-105878333D01*
X104735239Y-105878333D01*
X104830477Y-105925952D01*
X104878096Y-105973571D01*
X104925715Y-106068810D01*
X104925715Y-106306905D01*
X104878096Y-106402143D01*
X104830477Y-106449762D01*
X104735239Y-106497381D01*
X104497143Y-106497381D01*
X104401905Y-106449762D01*
X104354286Y-106402143D01*
X78636905Y-85542381D02*
X78636905Y-84542381D01*
X78875000Y-84542381D01*
X79017858Y-84590000D01*
X79113096Y-84685238D01*
X79160715Y-84780476D01*
X79208334Y-84970952D01*
X79208334Y-85113810D01*
X79160715Y-85304286D01*
X79113096Y-85399524D01*
X79017858Y-85494762D01*
X78875000Y-85542381D01*
X78636905Y-85542381D01*
X80160715Y-85542381D02*
X79589286Y-85542381D01*
X79875000Y-85542381D02*
X79875000Y-84542381D01*
X79779762Y-84685238D01*
X79684524Y-84780476D01*
X79589286Y-84828095D01*
X76096905Y-80462381D02*
X76096905Y-79462381D01*
X76335000Y-79462381D01*
X76477858Y-79510000D01*
X76573096Y-79605238D01*
X76620715Y-79700476D01*
X76668334Y-79890952D01*
X76668334Y-80033810D01*
X76620715Y-80224286D01*
X76573096Y-80319524D01*
X76477858Y-80414762D01*
X76335000Y-80462381D01*
X76096905Y-80462381D01*
X77049286Y-79557619D02*
X77096905Y-79510000D01*
X77192143Y-79462381D01*
X77430239Y-79462381D01*
X77525477Y-79510000D01*
X77573096Y-79557619D01*
X77620715Y-79652857D01*
X77620715Y-79748095D01*
X77573096Y-79890952D01*
X77001667Y-80462381D01*
X77620715Y-80462381D01*
X91971905Y-80462381D02*
X91971905Y-79462381D01*
X92210000Y-79462381D01*
X92352858Y-79510000D01*
X92448096Y-79605238D01*
X92495715Y-79700476D01*
X92543334Y-79890952D01*
X92543334Y-80033810D01*
X92495715Y-80224286D01*
X92448096Y-80319524D01*
X92352858Y-80414762D01*
X92210000Y-80462381D01*
X91971905Y-80462381D01*
X92876667Y-79462381D02*
X93495715Y-79462381D01*
X93162381Y-79843333D01*
X93305239Y-79843333D01*
X93400477Y-79890952D01*
X93448096Y-79938571D01*
X93495715Y-80033810D01*
X93495715Y-80271905D01*
X93448096Y-80367143D01*
X93400477Y-80414762D01*
X93305239Y-80462381D01*
X93019524Y-80462381D01*
X92924286Y-80414762D01*
X92876667Y-80367143D01*
X105941905Y-96337381D02*
X105941905Y-95337381D01*
X106180000Y-95337381D01*
X106322858Y-95385000D01*
X106418096Y-95480238D01*
X106465715Y-95575476D01*
X106513334Y-95765952D01*
X106513334Y-95908810D01*
X106465715Y-96099286D01*
X106418096Y-96194524D01*
X106322858Y-96289762D01*
X106180000Y-96337381D01*
X105941905Y-96337381D01*
X107370477Y-95670714D02*
X107370477Y-96337381D01*
X107132381Y-95289762D02*
X106894286Y-96004048D01*
X107513334Y-96004048D01*
X99433095Y-96337381D02*
X99433095Y-95337381D01*
X100004524Y-96337381D02*
X99575952Y-95765952D01*
X100004524Y-95337381D02*
X99433095Y-95908810D01*
X105941905Y-91257381D02*
X105941905Y-90257381D01*
X106180000Y-90257381D01*
X106322858Y-90305000D01*
X106418096Y-90400238D01*
X106465715Y-90495476D01*
X106513334Y-90685952D01*
X106513334Y-90828810D01*
X106465715Y-91019286D01*
X106418096Y-91114524D01*
X106322858Y-91209762D01*
X106180000Y-91257381D01*
X105941905Y-91257381D01*
X107418096Y-90257381D02*
X106941905Y-90257381D01*
X106894286Y-90733571D01*
X106941905Y-90685952D01*
X107037143Y-90638333D01*
X107275239Y-90638333D01*
X107370477Y-90685952D01*
X107418096Y-90733571D01*
X107465715Y-90828810D01*
X107465715Y-91066905D01*
X107418096Y-91162143D01*
X107370477Y-91209762D01*
X107275239Y-91257381D01*
X107037143Y-91257381D01*
X106941905Y-91209762D01*
X106894286Y-91162143D01*
X99433095Y-91257381D02*
X99433095Y-90257381D01*
X100004524Y-91257381D02*
X99575952Y-90685952D01*
X100004524Y-90257381D02*
X99433095Y-90828810D01*
X72056667Y-125658571D02*
X71723333Y-125658571D01*
X71723333Y-126182381D02*
X71723333Y-125182381D01*
X72199524Y-125182381D01*
X73104286Y-126182381D02*
X72532857Y-126182381D01*
X72818571Y-126182381D02*
X72818571Y-125182381D01*
X72723333Y-125325238D01*
X72628095Y-125420476D01*
X72532857Y-125468095D01*
X70381905Y-132532381D02*
X70381905Y-131532381D01*
X70762858Y-131532381D01*
X70858096Y-131580000D01*
X70905715Y-131627619D01*
X70953334Y-131722857D01*
X70953334Y-131865714D01*
X70905715Y-131960952D01*
X70858096Y-132008571D01*
X70762858Y-132056190D01*
X70381905Y-132056190D01*
X71905715Y-132532381D02*
X71334286Y-132532381D01*
X71620000Y-132532381D02*
X71620000Y-131532381D01*
X71524762Y-131675238D01*
X71429524Y-131770476D01*
X71334286Y-131818095D01*
X100861905Y-132532381D02*
X100861905Y-131532381D01*
X101242858Y-131532381D01*
X101338096Y-131580000D01*
X101385715Y-131627619D01*
X101433334Y-131722857D01*
X101433334Y-131865714D01*
X101385715Y-131960952D01*
X101338096Y-132008571D01*
X101242858Y-132056190D01*
X100861905Y-132056190D01*
X102290477Y-131865714D02*
X102290477Y-132532381D01*
X102052381Y-131484762D02*
X101814286Y-132199048D01*
X102433334Y-132199048D01*
X65873334Y-114752381D02*
X65540000Y-114276190D01*
X65301905Y-114752381D02*
X65301905Y-113752381D01*
X65682858Y-113752381D01*
X65778096Y-113800000D01*
X65825715Y-113847619D01*
X65873334Y-113942857D01*
X65873334Y-114085714D01*
X65825715Y-114180952D01*
X65778096Y-114228571D01*
X65682858Y-114276190D01*
X65301905Y-114276190D01*
X66825715Y-114752381D02*
X66254286Y-114752381D01*
X66540000Y-114752381D02*
X66540000Y-113752381D01*
X66444762Y-113895238D01*
X66349524Y-113990476D01*
X66254286Y-114038095D01*
X116673334Y-99512381D02*
X116340000Y-99036190D01*
X116101905Y-99512381D02*
X116101905Y-98512381D01*
X116482858Y-98512381D01*
X116578096Y-98560000D01*
X116625715Y-98607619D01*
X116673334Y-98702857D01*
X116673334Y-98845714D01*
X116625715Y-98940952D01*
X116578096Y-98988571D01*
X116482858Y-99036190D01*
X116101905Y-99036190D01*
X117530477Y-98845714D02*
X117530477Y-99512381D01*
X117292381Y-98464762D02*
X117054286Y-99179048D01*
X117673334Y-99179048D01*
X116673334Y-89352381D02*
X116340000Y-88876190D01*
X116101905Y-89352381D02*
X116101905Y-88352381D01*
X116482858Y-88352381D01*
X116578096Y-88400000D01*
X116625715Y-88447619D01*
X116673334Y-88542857D01*
X116673334Y-88685714D01*
X116625715Y-88780952D01*
X116578096Y-88828571D01*
X116482858Y-88876190D01*
X116101905Y-88876190D01*
X117578096Y-88352381D02*
X117101905Y-88352381D01*
X117054286Y-88828571D01*
X117101905Y-88780952D01*
X117197143Y-88733333D01*
X117435239Y-88733333D01*
X117530477Y-88780952D01*
X117578096Y-88828571D01*
X117625715Y-88923810D01*
X117625715Y-89161905D01*
X117578096Y-89257143D01*
X117530477Y-89304762D01*
X117435239Y-89352381D01*
X117197143Y-89352381D01*
X117101905Y-89304762D01*
X117054286Y-89257143D01*
X117308334Y-80462381D02*
X116975000Y-79986190D01*
X116736905Y-80462381D02*
X116736905Y-79462381D01*
X117117858Y-79462381D01*
X117213096Y-79510000D01*
X117260715Y-79557619D01*
X117308334Y-79652857D01*
X117308334Y-79795714D01*
X117260715Y-79890952D01*
X117213096Y-79938571D01*
X117117858Y-79986190D01*
X116736905Y-79986190D01*
X118165477Y-79462381D02*
X117975000Y-79462381D01*
X117879762Y-79510000D01*
X117832143Y-79557619D01*
X117736905Y-79700476D01*
X117689286Y-79890952D01*
X117689286Y-80271905D01*
X117736905Y-80367143D01*
X117784524Y-80414762D01*
X117879762Y-80462381D01*
X118070239Y-80462381D01*
X118165477Y-80414762D01*
X118213096Y-80367143D01*
X118260715Y-80271905D01*
X118260715Y-80033810D01*
X118213096Y-79938571D01*
X118165477Y-79890952D01*
X118070239Y-79843333D01*
X117879762Y-79843333D01*
X117784524Y-79890952D01*
X117736905Y-79938571D01*
X117689286Y-80033810D01*
X110323334Y-85542381D02*
X109990000Y-85066190D01*
X109751905Y-85542381D02*
X109751905Y-84542381D01*
X110132858Y-84542381D01*
X110228096Y-84590000D01*
X110275715Y-84637619D01*
X110323334Y-84732857D01*
X110323334Y-84875714D01*
X110275715Y-84970952D01*
X110228096Y-85018571D01*
X110132858Y-85066190D01*
X109751905Y-85066190D01*
X110656667Y-84542381D02*
X111323334Y-84542381D01*
X110894762Y-85542381D01*
X85558334Y-99512381D02*
X85225000Y-99036190D01*
X84986905Y-99512381D02*
X84986905Y-98512381D01*
X85367858Y-98512381D01*
X85463096Y-98560000D01*
X85510715Y-98607619D01*
X85558334Y-98702857D01*
X85558334Y-98845714D01*
X85510715Y-98940952D01*
X85463096Y-98988571D01*
X85367858Y-99036190D01*
X84986905Y-99036190D01*
X86129762Y-98940952D02*
X86034524Y-98893333D01*
X85986905Y-98845714D01*
X85939286Y-98750476D01*
X85939286Y-98702857D01*
X85986905Y-98607619D01*
X86034524Y-98560000D01*
X86129762Y-98512381D01*
X86320239Y-98512381D01*
X86415477Y-98560000D01*
X86463096Y-98607619D01*
X86510715Y-98702857D01*
X86510715Y-98750476D01*
X86463096Y-98845714D01*
X86415477Y-98893333D01*
X86320239Y-98940952D01*
X86129762Y-98940952D01*
X86034524Y-98988571D01*
X85986905Y-99036190D01*
X85939286Y-99131429D01*
X85939286Y-99321905D01*
X85986905Y-99417143D01*
X86034524Y-99464762D01*
X86129762Y-99512381D01*
X86320239Y-99512381D01*
X86415477Y-99464762D01*
X86463096Y-99417143D01*
X86510715Y-99321905D01*
X86510715Y-99131429D01*
X86463096Y-99036190D01*
X86415477Y-98988571D01*
X86320239Y-98940952D01*
X82383334Y-110307381D02*
X82050000Y-109831190D01*
X81811905Y-110307381D02*
X81811905Y-109307381D01*
X82192858Y-109307381D01*
X82288096Y-109355000D01*
X82335715Y-109402619D01*
X82383334Y-109497857D01*
X82383334Y-109640714D01*
X82335715Y-109735952D01*
X82288096Y-109783571D01*
X82192858Y-109831190D01*
X81811905Y-109831190D01*
X82859524Y-110307381D02*
X83050000Y-110307381D01*
X83145239Y-110259762D01*
X83192858Y-110212143D01*
X83288096Y-110069286D01*
X83335715Y-109878810D01*
X83335715Y-109497857D01*
X83288096Y-109402619D01*
X83240477Y-109355000D01*
X83145239Y-109307381D01*
X82954762Y-109307381D01*
X82859524Y-109355000D01*
X82811905Y-109402619D01*
X82764286Y-109497857D01*
X82764286Y-109735952D01*
X82811905Y-109831190D01*
X82859524Y-109878810D01*
X82954762Y-109926429D01*
X83145239Y-109926429D01*
X83240477Y-109878810D01*
X83288096Y-109831190D01*
X83335715Y-109735952D01*
X132707143Y-76652381D02*
X132373809Y-76176190D01*
X132135714Y-76652381D02*
X132135714Y-75652381D01*
X132516667Y-75652381D01*
X132611905Y-75700000D01*
X132659524Y-75747619D01*
X132707143Y-75842857D01*
X132707143Y-75985714D01*
X132659524Y-76080952D01*
X132611905Y-76128571D01*
X132516667Y-76176190D01*
X132135714Y-76176190D01*
X133659524Y-76652381D02*
X133088095Y-76652381D01*
X133373809Y-76652381D02*
X133373809Y-75652381D01*
X133278571Y-75795238D01*
X133183333Y-75890476D01*
X133088095Y-75938095D01*
X134278571Y-75652381D02*
X134373810Y-75652381D01*
X134469048Y-75700000D01*
X134516667Y-75747619D01*
X134564286Y-75842857D01*
X134611905Y-76033333D01*
X134611905Y-76271429D01*
X134564286Y-76461905D01*
X134516667Y-76557143D01*
X134469048Y-76604762D01*
X134373810Y-76652381D01*
X134278571Y-76652381D01*
X134183333Y-76604762D01*
X134135714Y-76557143D01*
X134088095Y-76461905D01*
X134040476Y-76271429D01*
X134040476Y-76033333D01*
X134088095Y-75842857D01*
X134135714Y-75747619D01*
X134183333Y-75700000D01*
X134278571Y-75652381D01*
X147312143Y-97607381D02*
X146978809Y-97131190D01*
X146740714Y-97607381D02*
X146740714Y-96607381D01*
X147121667Y-96607381D01*
X147216905Y-96655000D01*
X147264524Y-96702619D01*
X147312143Y-96797857D01*
X147312143Y-96940714D01*
X147264524Y-97035952D01*
X147216905Y-97083571D01*
X147121667Y-97131190D01*
X146740714Y-97131190D01*
X148264524Y-97607381D02*
X147693095Y-97607381D01*
X147978809Y-97607381D02*
X147978809Y-96607381D01*
X147883571Y-96750238D01*
X147788333Y-96845476D01*
X147693095Y-96893095D01*
X149216905Y-97607381D02*
X148645476Y-97607381D01*
X148931190Y-97607381D02*
X148931190Y-96607381D01*
X148835952Y-96750238D01*
X148740714Y-96845476D01*
X148645476Y-96893095D01*
X67143334Y-108402381D02*
X66810000Y-107926190D01*
X66571905Y-108402381D02*
X66571905Y-107402381D01*
X66952858Y-107402381D01*
X67048096Y-107450000D01*
X67095715Y-107497619D01*
X67143334Y-107592857D01*
X67143334Y-107735714D01*
X67095715Y-107830952D01*
X67048096Y-107878571D01*
X66952858Y-107926190D01*
X66571905Y-107926190D01*
X67524286Y-107497619D02*
X67571905Y-107450000D01*
X67667143Y-107402381D01*
X67905239Y-107402381D01*
X68000477Y-107450000D01*
X68048096Y-107497619D01*
X68095715Y-107592857D01*
X68095715Y-107688095D01*
X68048096Y-107830952D01*
X67476667Y-108402381D01*
X68095715Y-108402381D01*
X67143334Y-86812381D02*
X66810000Y-86336190D01*
X66571905Y-86812381D02*
X66571905Y-85812381D01*
X66952858Y-85812381D01*
X67048096Y-85860000D01*
X67095715Y-85907619D01*
X67143334Y-86002857D01*
X67143334Y-86145714D01*
X67095715Y-86240952D01*
X67048096Y-86288571D01*
X66952858Y-86336190D01*
X66571905Y-86336190D01*
X67476667Y-85812381D02*
X68095715Y-85812381D01*
X67762381Y-86193333D01*
X67905239Y-86193333D01*
X68000477Y-86240952D01*
X68048096Y-86288571D01*
X68095715Y-86383810D01*
X68095715Y-86621905D01*
X68048096Y-86717143D01*
X68000477Y-86764762D01*
X67905239Y-86812381D01*
X67619524Y-86812381D01*
X67524286Y-86764762D01*
X67476667Y-86717143D01*
X100861905Y-80462381D02*
X100861905Y-79462381D01*
X101242858Y-79462381D01*
X101338096Y-79510000D01*
X101385715Y-79557619D01*
X101433334Y-79652857D01*
X101433334Y-79795714D01*
X101385715Y-79890952D01*
X101338096Y-79938571D01*
X101242858Y-79986190D01*
X100861905Y-79986190D01*
X101814286Y-79557619D02*
X101861905Y-79510000D01*
X101957143Y-79462381D01*
X102195239Y-79462381D01*
X102290477Y-79510000D01*
X102338096Y-79557619D01*
X102385715Y-79652857D01*
X102385715Y-79748095D01*
X102338096Y-79890952D01*
X101766667Y-80462381D01*
X102385715Y-80462381D01*
X141501905Y-77922381D02*
X141501905Y-76922381D01*
X141882858Y-76922381D01*
X141978096Y-76970000D01*
X142025715Y-77017619D01*
X142073334Y-77112857D01*
X142073334Y-77255714D01*
X142025715Y-77350952D01*
X141978096Y-77398571D01*
X141882858Y-77446190D01*
X141501905Y-77446190D01*
X142406667Y-76922381D02*
X143025715Y-76922381D01*
X142692381Y-77303333D01*
X142835239Y-77303333D01*
X142930477Y-77350952D01*
X142978096Y-77398571D01*
X143025715Y-77493810D01*
X143025715Y-77731905D01*
X142978096Y-77827143D01*
X142930477Y-77874762D01*
X142835239Y-77922381D01*
X142549524Y-77922381D01*
X142454286Y-77874762D01*
X142406667Y-77827143D01*
X92376667Y-109148571D02*
X92043333Y-109148571D01*
X92043333Y-109672381D02*
X92043333Y-108672381D01*
X92519524Y-108672381D01*
X92852857Y-108767619D02*
X92900476Y-108720000D01*
X92995714Y-108672381D01*
X93233810Y-108672381D01*
X93329048Y-108720000D01*
X93376667Y-108767619D01*
X93424286Y-108862857D01*
X93424286Y-108958095D01*
X93376667Y-109100952D01*
X92805238Y-109672381D01*
X93424286Y-109672381D01*
M02*
