M48
METRIC,TZ
T1C0.400
T2C0.500
T3C0.600
T4C0.701
T5C0.800
T6C0.900
T7C1.001
T8C1.016
T9C1.270
T10C1.349
T11C1.524
T12C2.200
T13C3.500
T14C4.300
%
G90
G05
T1
X153770Y-76660
X153770Y-82660
X153770Y-118660
X153770Y-124660
X154253Y-75493
X154253Y-77827
X154253Y-81493
X154253Y-83827
X154253Y-117493
X154253Y-119827
X154253Y-123493
X154253Y-125827
X155420Y-75010
X155420Y-78310
X155420Y-81010
X155420Y-84310
X155420Y-117010
X155420Y-120310
X155420Y-123010
X155420Y-126310
X156587Y-75493
X156587Y-77827
X156587Y-81493
X156587Y-83827
X156587Y-117493
X156587Y-119827
X156587Y-123493
X156587Y-125827
X157070Y-76660
X157070Y-82660
X157070Y-118660
X157070Y-124660
T2
X60960Y-76200
X60960Y-87630
X71755Y-76200
X76200Y-85725
X79375Y-79375
X91440Y-99695
X97790Y-94615
X98425Y-85090
X102235Y-104775
X103505Y-93980
X104140Y-86995
X108585Y-83820
X112395Y-96520
X113030Y-87630
X116840Y-80010
X120015Y-88265
X120650Y-83820
X121285Y-74930
X123825Y-80010
X123825Y-90805
X124460Y-84455
X124460Y-93980
X125095Y-87630
X125730Y-95885
X128270Y-76835
X128905Y-91440
X130175Y-80645
X130175Y-86360
X131445Y-101600
X132715Y-86995
X132715Y-90805
X132715Y-111125
X141605Y-82550
X142240Y-88265
X145415Y-95885
X146050Y-90170
X148590Y-77470
X151765Y-74930
X152400Y-87630
X156210Y-93980
T3
X63195Y-79660
X63195Y-121660
X64140Y-77380
X64140Y-81940
X64140Y-119380
X64140Y-123940
X66420Y-76435
X66420Y-82885
X66420Y-118435
X66420Y-124885
X68700Y-77380
X68700Y-81940
X68700Y-119380
X68700Y-123940
X69645Y-79660
X69645Y-121660
T4
X81277Y-82549
X81277Y-92709
T5
X91440Y-88910
X91440Y-92710
X127000Y-83820
X127000Y-86360
X127000Y-88900
X127000Y-91440
X134620Y-83820
X134620Y-86360
X134620Y-88900
X134620Y-91440
T6
X64135Y-89775
X64135Y-104775
X75565Y-89775
X75565Y-104775
X96520Y-109220
X96520Y-119220
X107315Y-109220
X107315Y-124220
X128350Y-96520
X133350Y-96520
T7
X62230Y-111760
X69850Y-88265
X69850Y-95885
X69850Y-99060
X69850Y-106680
X74930Y-77467
X77230Y-111760
X85090Y-82547
X85090Y-107315
X85090Y-117475
X88265Y-97155
X88265Y-107315
X101600Y-91440
X101600Y-96520
X104140Y-82550
X104140Y-91440
X104140Y-96520
X109220Y-77470
X109220Y-91440
X109220Y-96520
X114300Y-82550
X114300Y-123190
X119380Y-77470
X119380Y-91440
X119380Y-96520
X125730Y-78740
X129540Y-123190
X135890Y-78740
X135890Y-121920
X139700Y-118110
X139700Y-125730
X140335Y-94615
X150495Y-94615
T8
X101600Y-77470
X104140Y-77470
X144145Y-81280
X144145Y-83820
X144145Y-86360
X146685Y-81280
X146685Y-83820
X146685Y-86360
T9
X85090Y-77467
X95250Y-82547
T10
X76360Y-125095
X81359Y-125095
X91361Y-125095
X96360Y-125095
T11
X74930Y-137160
X82550Y-137160
X90170Y-137160
X97790Y-137160
T12
X155420Y-76660
X155420Y-82660
X155420Y-118660
X155420Y-124660
T13
X145415Y-109220
X145415Y-134620
T14
X66420Y-79660
X66420Y-121660
T0
M30
