G04 #@! TF.FileFunction,Profile,NP*
%FSLAX46Y46*%
G04 Gerber Fmt 4.6, Leading zero omitted, Abs format (unit mm)*
G04 Created by KiCad (PCBNEW 4.0.5+dfsg1-4) date Wed Mar 13 23:51:39 2019*
%MOMM*%
%LPD*%
G01*
G04 APERTURE LIST*
%ADD10C,0.100000*%
%ADD11C,0.150000*%
G04 APERTURE END LIST*
D10*
D11*
X138369000Y-119254000D02*
X143369000Y-119254000D01*
X85070000Y-129155000D02*
G75*
G02X83070000Y-129155000I-1000000J0D01*
G01*
X85070000Y-129155000D02*
X85070000Y-121155000D01*
X83070000Y-129155000D02*
X83070000Y-121155000D01*
X83070000Y-121155000D02*
G75*
G02X85070000Y-121155000I1000000J0D01*
G01*
X87515000Y-121155000D02*
G75*
G02X89515000Y-121155000I1000000J0D01*
G01*
X87515000Y-129155000D02*
X87515000Y-121155000D01*
X89515000Y-129155000D02*
X89515000Y-121155000D01*
X89515000Y-129155000D02*
G75*
G02X87515000Y-129155000I-1000000J0D01*
G01*
X103255000Y-115455000D02*
X111255000Y-115455000D01*
X111255000Y-115455000D02*
G75*
G02X111255000Y-117455000I0J-1000000D01*
G01*
X103255000Y-117455000D02*
X111255000Y-117455000D01*
X103255000Y-117455000D02*
G75*
G02X103255000Y-115455000I0J1000000D01*
G01*
X60980000Y-93205000D02*
G75*
G02X60980000Y-91205000I0J1000000D01*
G01*
X79030000Y-91205000D02*
G75*
G02X79030000Y-93205000I0J-1000000D01*
G01*
X60980000Y-91205000D02*
X79030000Y-91205000D01*
X60980000Y-93205000D02*
X79030000Y-93205000D01*
X60980000Y-103365000D02*
X79030000Y-103365000D01*
X60980000Y-101365000D02*
X79030000Y-101365000D01*
X79030000Y-101365000D02*
G75*
G02X79030000Y-103365000I0J-1000000D01*
G01*
X60980000Y-103365000D02*
G75*
G02X60980000Y-101365000I0J1000000D01*
G01*
X99365000Y-113160000D02*
G75*
G02X99365000Y-115160000I0J-1000000D01*
G01*
X93365000Y-113160000D02*
X99365000Y-113160000D01*
X93365000Y-115160000D02*
X99365000Y-115160000D01*
X93365000Y-115160000D02*
G75*
G02X93365000Y-113160000I0J1000000D01*
G01*
X91110000Y-101095000D02*
G75*
G02X91110000Y-103095000I0J-1000000D01*
G01*
X85110000Y-101095000D02*
X91110000Y-101095000D01*
X85110000Y-103095000D02*
X91110000Y-103095000D01*
X85110000Y-103095000D02*
G75*
G02X85110000Y-101095000I0J1000000D01*
G01*
X87935000Y-111255000D02*
G75*
G02X87935000Y-113255000I0J-1000000D01*
G01*
X81935000Y-111255000D02*
X87935000Y-111255000D01*
X81935000Y-113255000D02*
X87935000Y-113255000D01*
X81935000Y-113255000D02*
G75*
G02X81935000Y-111255000I0J1000000D01*
G01*
X94620000Y-139750000D02*
G75*
G02X92620000Y-139750000I-1000000J0D01*
G01*
X92620000Y-139750000D02*
X92620000Y-133750000D01*
X94620000Y-139750000D02*
X94620000Y-133750000D01*
X92620000Y-133750000D02*
G75*
G02X94620000Y-133750000I1000000J0D01*
G01*
X80015000Y-139750000D02*
G75*
G02X78015000Y-139750000I-1000000J0D01*
G01*
X78015000Y-139750000D02*
X78015000Y-133750000D01*
X80015000Y-139750000D02*
X80015000Y-133750000D01*
X78015000Y-133750000D02*
G75*
G02X80015000Y-133750000I1000000J0D01*
G01*
X135369000Y-127676904D02*
G75*
G02X133869000Y-126176904I-750000J750000D01*
G01*
X137369000Y-122676904D02*
X143369000Y-122676904D01*
X135369000Y-127676904D02*
X138369000Y-124676904D01*
X143369000Y-122676904D02*
G75*
G02X143369000Y-124676904I0J-1000000D01*
G01*
X137369000Y-122676904D02*
X133869000Y-126176904D01*
X138369000Y-124676904D02*
X143369000Y-124676904D01*
X135369000Y-116254000D02*
G75*
G03X133869000Y-117754000I-750000J-750000D01*
G01*
X137369000Y-121254000D02*
X133869000Y-117754000D01*
X135369000Y-116254000D02*
X138369000Y-119254000D01*
X143369000Y-121254000D02*
G75*
G03X143369000Y-119254000I0J1000000D01*
G01*
X137369000Y-121254000D02*
X143369000Y-121254000D01*
X58420000Y-73660000D02*
X58420000Y-143660000D01*
X58420000Y-143660000D02*
X158420000Y-143660000D01*
X158420000Y-73660000D02*
X158420000Y-143660000D01*
X58420000Y-73660000D02*
X158420000Y-73660000D01*
M02*
